<?xml version="1.0" encoding="UTF-8"?>
<svg version="1.1" viewBox="0 0 1000 1000" width="1000" height="1000" xmlns="http://www.w3.org/2000/svg">
<path transform="translate(472,57)" d="m0 0h56l31 3 35 6 28 7 36 12 26 11 23 11 21 12 19 12 18 13 14 11 13 11 12 11 13 12 9 10 12 13 11 14 13 17 14 21 14 24 11 21 12 28 10 28 8 28 6 29 4 27 2 23v28h-84l-2-36-4-29-6-27-9-29-11-27-8-16-10-19-18-27-10-13-9-11-11-12-9-10-8-7-13-12-17-13-14-10-16-10-16-9-16-8-23-10-30-10-24-6-30-5-21-2h-48l-28 3-27 5-27 7-23 8-23 10-16 8-20 11-22 15-13 10-11 9-12 11-10 9-7 8-12 13-13 17-10 14-12 19-11 20-12 27-10 28-7 27-4 20-3 23-1 12v48l3 28 4 23 6 24 10 30 10 23 8 16 11 20 15 22 10 13 9 11 11 12 9 10 8 7 13 12 17 13 14 10 19 12 20 11 27 12 25 9 25 7 25 5 23 3 36 2v84h-28l-31-3-35-6-28-7-36-12-26-11-23-11-21-12-19-12-18-13-14-11-13-11-10-9-16-15-7-8-13-14-11-14-13-17-14-21-14-24-11-21-12-28-10-28-8-28-6-29-4-27-2-23v-56l3-31 6-35 7-28 12-36 11-26 10-21 13-23 12-19 13-18 11-14 11-13 11-12 14-15 8-7 13-12 14-11 17-13 21-14 22-13 23-12 28-12 28-10 24-7 27-6 33-5z" fill="#fff"/>
</svg>
